<svg
				viewBox="0 0 825 398"
				xmlns="http://www.w3.org/2000/svg"
				xmlns:xlink="http://www.w3.org/1999/xlink">
				<g id="Group">
					<linearGradient
						id="linearGradient1"
						x1="122.163939"
						y1="49.68269"
						x2="709.610999"
						y2="333.157526"
						gradientUnits="userSpaceOnUse">
						<stop offset="0" stop-color="#fb3fdc" stop-opacity="1" />
						<stop offset="1" stop-color="#6946fc" stop-opacity="1" />
					</linearGradient>
					<path
						id="Shape-copy"
						fill="url(#linearGradient1)"
						fill-rule="evenodd"
						stroke="none"
						d="M 62.259697 397.514914 L 0.942008 298.074814 L 298.439789 298.074814 L 298.439789 248.418137 C 298.439789 248.418137 130.779617 248.418137 50.156357 248.418137 C 26.747997 248.418137 0.49967 222.169754 0.49967 198.761444 C 0.49967 151.853348 0.49967 96.699371 0.49967 49.791382 C 0.49967 26.382996 26.74798 0.134705 50.156357 0.134705 C 138.407013 0.134705 276.740173 0.134705 336.820435 0.134705 L 397.753174 98.950745 L 397.753174 99.448059 L 99.813042 99.448059 L 99.813042 149.104752 C 99.813042 149.104752 263.075562 149.104752 348.096466 149.104752 C 371.504791 149.104752 397.753174 175.353149 397.753174 198.761444 C 397.753174 247.135422 397.753174 300.823441 397.753174 347.731503 C 397.753174 371.139805 371.504791 397.38819 348.096466 397.38819 C 261.389008 397.38819 136.582169 397.47124 62.259697 397.514914 Z M 477.326683 398.000507 L 477.326683 0.134915 L 550.778792 0.134915 L 576.48703 0.134915 L 576.48703 28.927568 L 576.48703 298.534109 L 726.554567 298.534109 L 825 396.979541 L 825 398.000507 L 477.326683 398.000507 Z" />
				</g>
			</svg>